<svg viewBox="0 0 94 94" xmlns="http://www.w3.org/2000/svg">
<path d="M44.1944 1.10022C45.7716 -0.36675 48.2286 -0.366759 49.8057 1.10022L92.6973 40.9957C95.4067 43.5161 93.6071 48.024 89.8917 48.024H78.7452C78.1929 48.0241 77.7452 48.4718 77.7452 49.024V85.8717C77.7451 90.2204 74.3006 93.771 69.9688 93.9889L69.547 94.0006H24.4532L24.0303 93.9889C19.8387 93.7778 16.4776 90.4463 16.2647 86.2906L16.254 85.8717V49.024C16.254 48.4718 15.8063 48.024 15.254 48.024H4.10847L3.76472 48.0114C0.284118 47.7443 -1.32176 43.4373 1.30281 40.9957L44.1944 1.10022Z"/>
</svg>
